<mxfile host="app.diagrams.net" modified="2023-03-30T18:37:41.087Z" agent="Mozilla/5.0 (Windows NT 10.0; Win64; x64) AppleWebKit/537.36 (KHTML, like Gecko) Chrome/111.0.0.0 Safari/537.36" etag="VYzZjepVy3reDF3HPr0O" version="21.1.2" type="github">
  <diagram id="C5RBs43oDa-KdzZeNtuy" name="Page-1">
    <mxGraphModel dx="1687" dy="899" grid="1" gridSize="10" guides="1" tooltips="1" connect="1" arrows="1" fold="1" page="1" pageScale="1" pageWidth="827" pageHeight="1169" math="0" shadow="0">
      <root>
        <mxCell id="WIyWlLk6GJQsqaUBKTNV-0" />
        <mxCell id="WIyWlLk6GJQsqaUBKTNV-1" parent="WIyWlLk6GJQsqaUBKTNV-0" />
        <mxCell id="Vi1dxCGVw1n4eEJ5ojDk-0" value="Начало" style="rounded=1;whiteSpace=wrap;html=1;" vertex="1" parent="WIyWlLk6GJQsqaUBKTNV-1">
          <mxGeometry x="354" y="120" width="120" height="60" as="geometry" />
        </mxCell>
        <mxCell id="Vi1dxCGVw1n4eEJ5ojDk-1" value="" style="endArrow=classic;html=1;rounded=0;" edge="1" parent="WIyWlLk6GJQsqaUBKTNV-1">
          <mxGeometry width="50" height="50" relative="1" as="geometry">
            <mxPoint x="410" y="180" as="sourcePoint" />
            <mxPoint x="410" y="250" as="targetPoint" />
          </mxGeometry>
        </mxCell>
        <mxCell id="Vi1dxCGVw1n4eEJ5ojDk-17" value="" style="edgeStyle=orthogonalEdgeStyle;rounded=0;orthogonalLoop=1;jettySize=auto;html=1;" edge="1" parent="WIyWlLk6GJQsqaUBKTNV-1" source="Vi1dxCGVw1n4eEJ5ojDk-2" target="Vi1dxCGVw1n4eEJ5ojDk-16">
          <mxGeometry relative="1" as="geometry" />
        </mxCell>
        <mxCell id="Vi1dxCGVw1n4eEJ5ojDk-2" value="Оформление предзаказа" style="rounded=0;whiteSpace=wrap;html=1;" vertex="1" parent="WIyWlLk6GJQsqaUBKTNV-1">
          <mxGeometry x="354" y="250" width="120" height="60" as="geometry" />
        </mxCell>
        <mxCell id="Vi1dxCGVw1n4eEJ5ojDk-7" value="" style="edgeStyle=orthogonalEdgeStyle;rounded=0;orthogonalLoop=1;jettySize=auto;html=1;" edge="1" parent="WIyWlLk6GJQsqaUBKTNV-1" source="Vi1dxCGVw1n4eEJ5ojDk-5" target="Vi1dxCGVw1n4eEJ5ojDk-6">
          <mxGeometry relative="1" as="geometry" />
        </mxCell>
        <mxCell id="Vi1dxCGVw1n4eEJ5ojDk-12" value="" style="edgeStyle=orthogonalEdgeStyle;rounded=0;orthogonalLoop=1;jettySize=auto;html=1;" edge="1" parent="WIyWlLk6GJQsqaUBKTNV-1" source="Vi1dxCGVw1n4eEJ5ojDk-5" target="Vi1dxCGVw1n4eEJ5ojDk-11">
          <mxGeometry relative="1" as="geometry" />
        </mxCell>
        <mxCell id="Vi1dxCGVw1n4eEJ5ojDk-5" value="Данные введены корректно?" style="rhombus;whiteSpace=wrap;html=1;" vertex="1" parent="WIyWlLk6GJQsqaUBKTNV-1">
          <mxGeometry x="354" y="440" width="120" height="110" as="geometry" />
        </mxCell>
        <mxCell id="Vi1dxCGVw1n4eEJ5ojDk-6" value="Вывести ошибку" style="whiteSpace=wrap;html=1;" vertex="1" parent="WIyWlLk6GJQsqaUBKTNV-1">
          <mxGeometry x="554" y="465" width="120" height="60" as="geometry" />
        </mxCell>
        <mxCell id="Vi1dxCGVw1n4eEJ5ojDk-8" value="нет" style="text;html=1;align=center;verticalAlign=middle;resizable=0;points=[];autosize=1;strokeColor=none;fillColor=none;" vertex="1" parent="WIyWlLk6GJQsqaUBKTNV-1">
          <mxGeometry x="493" y="450" width="40" height="30" as="geometry" />
        </mxCell>
        <mxCell id="Vi1dxCGVw1n4eEJ5ojDk-14" value="" style="edgeStyle=orthogonalEdgeStyle;rounded=0;orthogonalLoop=1;jettySize=auto;html=1;" edge="1" parent="WIyWlLk6GJQsqaUBKTNV-1" source="Vi1dxCGVw1n4eEJ5ojDk-11" target="Vi1dxCGVw1n4eEJ5ojDk-13">
          <mxGeometry relative="1" as="geometry" />
        </mxCell>
        <mxCell id="Vi1dxCGVw1n4eEJ5ojDk-20" value="" style="edgeStyle=orthogonalEdgeStyle;rounded=0;orthogonalLoop=1;jettySize=auto;html=1;" edge="1" parent="WIyWlLk6GJQsqaUBKTNV-1" source="Vi1dxCGVw1n4eEJ5ojDk-11" target="Vi1dxCGVw1n4eEJ5ojDk-19">
          <mxGeometry relative="1" as="geometry" />
        </mxCell>
        <mxCell id="Vi1dxCGVw1n4eEJ5ojDk-11" value="Есть ли такой номер и почта?" style="rhombus;whiteSpace=wrap;html=1;" vertex="1" parent="WIyWlLk6GJQsqaUBKTNV-1">
          <mxGeometry x="335" y="605" width="158" height="150" as="geometry" />
        </mxCell>
        <mxCell id="Vi1dxCGVw1n4eEJ5ojDk-13" value="Вывести ошибку" style="whiteSpace=wrap;html=1;" vertex="1" parent="WIyWlLk6GJQsqaUBKTNV-1">
          <mxGeometry x="554" y="650" width="120" height="60" as="geometry" />
        </mxCell>
        <mxCell id="Vi1dxCGVw1n4eEJ5ojDk-15" value="да" style="text;html=1;align=center;verticalAlign=middle;resizable=0;points=[];autosize=1;strokeColor=none;fillColor=none;" vertex="1" parent="WIyWlLk6GJQsqaUBKTNV-1">
          <mxGeometry x="374" y="550" width="40" height="30" as="geometry" />
        </mxCell>
        <mxCell id="Vi1dxCGVw1n4eEJ5ojDk-16" value="Отмена предзаказа" style="whiteSpace=wrap;html=1;rounded=0;" vertex="1" parent="WIyWlLk6GJQsqaUBKTNV-1">
          <mxGeometry x="354" y="340" width="120" height="60" as="geometry" />
        </mxCell>
        <mxCell id="Vi1dxCGVw1n4eEJ5ojDk-18" value="" style="endArrow=classic;html=1;rounded=0;" edge="1" parent="WIyWlLk6GJQsqaUBKTNV-1" source="Vi1dxCGVw1n4eEJ5ojDk-16" target="Vi1dxCGVw1n4eEJ5ojDk-5">
          <mxGeometry width="50" height="50" relative="1" as="geometry">
            <mxPoint x="390" y="400" as="sourcePoint" />
            <mxPoint x="440" y="350" as="targetPoint" />
          </mxGeometry>
        </mxCell>
        <mxCell id="Vi1dxCGVw1n4eEJ5ojDk-24" value="" style="edgeStyle=orthogonalEdgeStyle;rounded=0;orthogonalLoop=1;jettySize=auto;html=1;" edge="1" parent="WIyWlLk6GJQsqaUBKTNV-1" source="Vi1dxCGVw1n4eEJ5ojDk-19">
          <mxGeometry relative="1" as="geometry">
            <mxPoint x="414" y="960" as="targetPoint" />
          </mxGeometry>
        </mxCell>
        <mxCell id="Vi1dxCGVw1n4eEJ5ojDk-19" value="Успешная отмена заказа" style="whiteSpace=wrap;html=1;" vertex="1" parent="WIyWlLk6GJQsqaUBKTNV-1">
          <mxGeometry x="354" y="820" width="120" height="60" as="geometry" />
        </mxCell>
        <mxCell id="Vi1dxCGVw1n4eEJ5ojDk-21" value="нет" style="text;html=1;align=center;verticalAlign=middle;resizable=0;points=[];autosize=1;strokeColor=none;fillColor=none;" vertex="1" parent="WIyWlLk6GJQsqaUBKTNV-1">
          <mxGeometry x="493" y="650" width="40" height="30" as="geometry" />
        </mxCell>
        <mxCell id="Vi1dxCGVw1n4eEJ5ojDk-22" value="да" style="text;html=1;align=center;verticalAlign=middle;resizable=0;points=[];autosize=1;strokeColor=none;fillColor=none;" vertex="1" parent="WIyWlLk6GJQsqaUBKTNV-1">
          <mxGeometry x="374" y="770" width="40" height="30" as="geometry" />
        </mxCell>
        <mxCell id="Vi1dxCGVw1n4eEJ5ojDk-25" value="Конец" style="rounded=1;whiteSpace=wrap;html=1;" vertex="1" parent="WIyWlLk6GJQsqaUBKTNV-1">
          <mxGeometry x="354" y="960" width="120" height="60" as="geometry" />
        </mxCell>
      </root>
    </mxGraphModel>
  </diagram>
</mxfile>
